Genre:Animation | Adventure | Comedy 
Language:English
IMDb:http://www.imdb.com/title/tt0377981/
Source:CiNEDUB/IMAGiNE Thx.


Format : AVI
Format/Info : Audio Video Interleave
File size : 554 MiB
Duration : 1h 14mn
Overall bit rate : 1 040 Kbps


Video
Codec ID/Hint : XviD
Duration : 1h 14mn
Bit rate : 903 Kbps
Width : 700 pixels
Height : 384 pixels
Display aspect ratio : 16:9
Frame rate : 25.000 fps
Color space : YUV
Chroma subsampling : 4:2:0
Bit depth : 8 bits
Scan type : Progressive
Bits/(Pixel*Frame) : 0.134
Stream size : 480 MiB (87%)
Writing library : XviD 1.2.1

Audio
ID : 1
Format : MPEG Audio
Format version : Version 1
Format profile : Layer 3
Mode : Joint stereo
Mode extension : MS Stereo
Codec ID : 55
Codec ID/Hint : MP3
Duration : 1h 14mn
Bit rate mode : Constant
Bit rate : 128 Kbps
Channel(s) : 2 channels
Sampling rate : 44.1 KHz
Stream size : 68.1 MiB (12%)
Alignment : Split accross interleaves
Interleave, duration : 40 ms (1.00 video frame)
Interleave, preload duration : 500 ms


Plot:
Garden gnomes Gnomeo (voice of McAvoy) and Juliet (voice of Blunt) have as many obstacles to overcome as their quasi namesakes when they are caught up in a feud between neighbors





================================== 
http://thepiratebay.org/user/hiest
==================================


